<svg width="1600" height="960" viewBox="0 0 1600 960" fill="none" xmlns="http://www.w3.org/2000/svg">
<g clip-path="url(#clip0_2009_176)">
<g filter="url(#filter0_f_2009_176)">
<path d="M1319.5 659C1164.58 659 1039 716.755 1039 788C1039 859.245 1164.58 917 1319.5 917C1474.42 917 1600 859.245 1600 788C1600 716.755 1474.42 659 1319.5 659Z" fill="#FCEBB6"/>
<path d="M1145.37 310.73C1015.35 394.953 941.343 511.703 980.077 571.499C1018.81 631.294 1155.61 611.492 1285.63 527.269C1415.65 443.047 1489.66 326.297 1450.92 266.501C1412.19 206.705 1275.39 226.507 1145.37 310.73Z" fill="#843E71"/>
<path d="M294.783 350.819C130.78 457.054 56.9664 634.47 129.916 747.088C202.866 859.706 394.954 864.88 558.957 758.645C722.96 652.41 796.774 474.994 723.824 362.376C650.874 249.758 458.786 244.584 294.783 350.819Z" fill="#FEFFBB"/>
<path d="M566.871 735.818C402.868 842.054 329.055 1019.47 402.005 1132.09C474.955 1244.71 667.043 1249.88 831.046 1143.64C995.049 1037.41 1068.86 859.994 995.913 747.376C922.963 634.757 730.874 629.583 566.871 735.818Z" fill="#8B6A2B"/>
<path d="M809.239 222.678C680.495 75.6822 511.06 13.507 430.794 83.8064C350.528 154.106 389.827 330.259 518.571 477.255C647.315 624.251 816.751 686.426 897.017 616.127C977.283 545.827 937.983 369.675 809.239 222.678Z" fill="#8B6A2B"/>
<path d="M166.453 788.854C17.1103 662.84 -131.487 593.313 -165.449 633.561C-199.411 673.81 -105.876 808.593 43.4667 934.608C192.809 1060.62 341.407 1130.15 375.369 1089.9C409.33 1049.65 315.796 914.869 166.453 788.854Z" fill="#FAE7A0"/>
<path d="M917.871 -161.182C753.868 -54.947 680.055 122.469 753.005 235.087C825.955 347.705 1018.04 352.879 1182.05 246.644C1346.05 140.409 1419.86 -37.0069 1346.91 -149.625C1273.96 -262.243 1081.87 -267.417 917.871 -161.182Z" fill="#86FFE9"/>
<path d="M92.8724 -215.182C-71.1306 -108.947 -144.944 68.4686 -71.9937 181.087C0.956159 293.705 193.044 298.879 357.047 192.644C521.05 86.4087 594.863 -91.0069 521.914 -203.625C448.964 -316.243 256.875 -321.417 92.8724 -215.182Z" fill="#C19A32"/>
</g>
</g>
<defs>
<filter id="filter0_f_2009_176" x="-648.413" y="-767.594" width="2724.41" height="2463.65" filterUnits="userSpaceOnUse" color-interpolation-filters="sRGB">
<feFlood flood-opacity="0" result="BackgroundImageFix"/>
<feBlend mode="normal" in="SourceGraphic" in2="BackgroundImageFix" result="shape"/>
<feGaussianBlur stdDeviation="238" result="effect1_foregroundBlur_2009_176"/>
</filter>
<clipPath id="clip0_2009_176">
<rect width="1600" height="960" fill="white" transform="matrix(-1 0 0 -1 1600 960)"/>
</clipPath>
</defs>
</svg>
