<svg width="79" height="83" viewBox="0 0 79 83" fill="none" xmlns="http://www.w3.org/2000/svg">
<circle cx="3.5" cy="3.5" r="3.5" fill="#D9D9D9"/>
<circle cx="21.5" cy="3.5" r="3.5" fill="#D9D9D9"/>
<circle cx="21.5" cy="22.5" r="3.5" fill="#D9D9D9"/>
<circle cx="3.5" cy="22.5" r="3.5" fill="#D9D9D9"/>
<circle cx="3.5" cy="41.5" r="3.5" fill="#D9D9D9"/>
<circle cx="21.5" cy="41.5" r="3.5" fill="#D9D9D9"/>
<circle cx="21.5" cy="60.5" r="3.5" fill="#D9D9D9"/>
<circle cx="3.5" cy="60.5" r="3.5" fill="#D9D9D9"/>
<circle cx="39.5" cy="3.5" r="3.5" fill="#D9D9D9"/>
<circle cx="57.5" cy="3.5" r="3.5" fill="#D9D9D9"/>
<circle cx="57.5" cy="22.5" r="3.5" fill="#D9D9D9"/>
<circle cx="39.5" cy="22.5" r="3.5" fill="#D9D9D9"/>
<circle cx="39.5" cy="41.5" r="3.5" fill="#D9D9D9"/>
<circle cx="57.5" cy="41.5" r="3.5" fill="#D9D9D9"/>
<circle cx="57.5" cy="60.5" r="3.5" fill="#D9D9D9"/>
<circle cx="75.5" cy="3.5" r="3.5" fill="#D9D9D9"/>
<circle cx="75.5" cy="22.5" r="3.5" fill="#D9D9D9"/>
<circle cx="75.5" cy="41.5" r="3.5" fill="#D9D9D9"/>
<circle cx="75.5" cy="60.5" r="3.5" fill="#D9D9D9"/>
<circle cx="75.5" cy="79.5" r="3.5" fill="#D9D9D9"/>
<circle cx="57.5" cy="79.5" r="3.5" transform="rotate(90 57.5 79.5)" fill="#D9D9D9"/>
<circle cx="39.5" cy="79.5" r="3.5" transform="rotate(90 39.5 79.5)" fill="#D9D9D9"/>
<circle cx="21.5" cy="79.5" r="3.5" transform="rotate(90 21.5 79.5)" fill="#D9D9D9"/>
<circle cx="3.5" cy="79.5" r="3.5" transform="rotate(90 3.5 79.5)" fill="#D9D9D9"/>
<circle cx="39.5" cy="60.5" r="3.5" fill="#D9D9D9"/>
</svg>
